<svg version="1.1"
	 xmlns="http://www.w3.org/2000/svg"
	 x="0px" y="0px" width="842px" height="1191px" viewBox="-166.465 -14.573 842 1191"
	 enable-background="new -166.465 -14.573 842 1191" xml:space="preserve">
	<path fill="none" stroke="#099299" stroke-width="35" stroke-miterlimit="10" d="M52.569,9.993c0,0,466.551,17.952,430.275,114.245
	C445.11,224.399-20.244,86.307,25.433,259.99c45.805,174.169,503.531-41.772,478.308,137.756S172.54,490.144,86.535,523.042
	c-58.041,17.433-56.549,67.928-13.354,91.619c112.769,61.85,495.489,20.138,406.47,138.086
	c-74.913,99.261-444.112-49.681-468.028,85.679c-14.842,84.004,69.077,151.552,375.732,66.09
	c135.758-37.835,126.237,79.289,92.296,102.679c-99.032,68.241-251.933,46.901-349.395,57.811
	c-99.408,11.128-134.271,37.505-102.371,93.886"/>
</svg>
