<svg version="1.1"
	 xmlns="http://www.w3.org/2000/svg" xmlns:xlink="http://www.w3.org/1999/xlink"
	 x="0px" y="0px" width="1000px" height="3150px" viewBox="-180.635 -184.657 1000 3150"
	 enable-background="new -180.635 -184.657 1000 3150" xml:space="preserve">
	<path fill="none" stroke="#ded9a8" stroke-width="50" stroke-miterlimit="10" d="M319.365,2449.884v-191.12
	c4-166,267-145.421,275-233.421c5.88-64.684-82.594-128.989-224-128c-347.118,2.429-372.267-171.316-340-238
	c90-186,461.087,18.928,536-170c89.019-224.496-381.231-162.278-494-280c-43.195-45.091-44.687-141.2,13.354-174.383
	c86.005-62.615,437.63,64.719,462.853-276.985c25.223-341.705-432.503,69.308-478.308-262.197
	C24.586,165.199,489.94,428.037,527.673,237.395C563.95,54.115,97.398,19.947,97.398,19.947"/>
</svg>
